<mxfile host="Electron" agent="Mozilla/5.0 (X11; Linux x86_64) AppleWebKit/537.36 (KHTML, like Gecko) draw.io/24.7.17 Chrome/128.0.6613.36 Electron/32.0.1 Safari/537.36" version="24.7.17">
  <diagram id="R2lEEEUBdFMjLlhIrx00" name="Page-1">
    <mxGraphModel dx="1434" dy="863" grid="1" gridSize="10" guides="1" tooltips="1" connect="1" arrows="1" fold="1" page="1" pageScale="1" pageWidth="850" pageHeight="1100" math="0" shadow="0" extFonts="Permanent Marker^https://fonts.googleapis.com/css?family=Permanent+Marker">
      <root>
        <mxCell id="0" />
        <mxCell id="1" parent="0" />
        <mxCell id="CSIRv4RXPCGNGFPH0rIa-28" value="users" style="swimlane;childLayout=stackLayout;resizeParent=1;resizeParentMax=0;startSize=20;html=1;" parent="1" vertex="1">
          <mxGeometry x="10" y="90" width="820" height="240" as="geometry" />
        </mxCell>
        <mxCell id="CSIRv4RXPCGNGFPH0rIa-29" value="&lt;font color=&quot;#ff0000&quot;&gt;id UUID&lt;/font&gt;" style="swimlane;startSize=20;html=1;strokeColor=#0000FF;strokeWidth=5;" parent="CSIRv4RXPCGNGFPH0rIa-28" vertex="1">
          <mxGeometry y="20" width="110" height="220" as="geometry" />
        </mxCell>
        <mxCell id="CSIRv4RXPCGNGFPH0rIa-30" value="username TEXT" style="swimlane;startSize=20;html=1;" parent="CSIRv4RXPCGNGFPH0rIa-28" vertex="1">
          <mxGeometry x="110" y="20" width="200" height="220" as="geometry" />
        </mxCell>
        <mxCell id="CSIRv4RXPCGNGFPH0rIa-33" value="forename TEXT" style="swimlane;startSize=20;html=1;" parent="CSIRv4RXPCGNGFPH0rIa-28" vertex="1">
          <mxGeometry x="310" y="20" width="130" height="220" as="geometry" />
        </mxCell>
        <mxCell id="iS5wdr6oOOaTFg59CG-a-6" value="123XC&amp;nbsp; &amp;nbsp; &amp;nbsp; &amp;nbsp; &amp;nbsp; &amp;nbsp; &amp;nbsp; &amp;nbsp; &amp;nbsp; &amp;nbsp; &amp;nbsp; &amp;nbsp; &amp;nbsp; &amp;nbsp; &amp;nbsp; &amp;nbsp; &amp;nbsp; &amp;nbsp; &amp;nbsp; &amp;nbsp; &amp;nbsp; &amp;nbsp; BobTheMAn&amp;nbsp; &amp;nbsp; &amp;nbsp; &amp;nbsp; &amp;nbsp; &amp;nbsp; &amp;nbsp; &amp;nbsp; &amp;nbsp; &amp;nbsp; &amp;nbsp; &amp;nbsp; &amp;nbsp; &amp;nbsp; &amp;nbsp; &amp;nbsp; &amp;nbsp; &amp;nbsp;Robert&amp;nbsp; &amp;nbsp; &amp;nbsp; &amp;nbsp; &amp;nbsp; &amp;nbsp; &amp;nbsp; &amp;nbsp; &amp;nbsp;LeMan&amp;nbsp; &amp;nbsp; &amp;nbsp; &amp;nbsp; &amp;nbsp; &amp;nbsp; &amp;nbsp; &amp;nbsp; &amp;nbsp; &amp;nbsp; &amp;nbsp; &amp;nbsp; &amp;nbsp; aÃ¤fpk&amp;lt;naekcnazlkn&amp;nbsp; &amp;nbsp; 0033-04-14_15:36:06" style="text;html=1;align=left;verticalAlign=middle;whiteSpace=wrap;rounded=0;" parent="CSIRv4RXPCGNGFPH0rIa-33" vertex="1">
          <mxGeometry x="-310" y="40" width="860" height="30" as="geometry" />
        </mxCell>
        <mxCell id="CSIRv4RXPCGNGFPH0rIa-34" value="lastname TEXT" style="swimlane;startSize=20;html=1;" parent="CSIRv4RXPCGNGFPH0rIa-28" vertex="1">
          <mxGeometry x="440" y="20" width="140" height="220" as="geometry" />
        </mxCell>
        <mxCell id="CSIRv4RXPCGNGFPH0rIa-31" value="passwordHash TEXT" style="swimlane;startSize=20;html=1;" parent="CSIRv4RXPCGNGFPH0rIa-28" vertex="1">
          <mxGeometry x="580" y="20" width="120" height="220" as="geometry" />
        </mxCell>
        <mxCell id="CSIRv4RXPCGNGFPH0rIa-32" value="created TIMESTAMP" style="swimlane;startSize=20;html=1;" parent="CSIRv4RXPCGNGFPH0rIa-28" vertex="1">
          <mxGeometry x="700" y="20" width="120" height="220" as="geometry" />
        </mxCell>
        <mxCell id="CSIRv4RXPCGNGFPH0rIa-26" value="&lt;h1&gt;Database logic for EF Home Finance&lt;/h1&gt;" style="text;html=1;align=center;verticalAlign=middle;whiteSpace=wrap;rounded=0;" parent="1" vertex="1">
          <mxGeometry x="85" y="20" width="680" height="30" as="geometry" />
        </mxCell>
        <mxCell id="CSIRv4RXPCGNGFPH0rIa-38" value="transactions_&#39;USERNAME&#39;" style="swimlane;childLayout=stackLayout;resizeParent=1;resizeParentMax=0;startSize=20;html=1;" parent="1" vertex="1">
          <mxGeometry x="5" y="840" width="830" height="240" as="geometry" />
        </mxCell>
        <mxCell id="CSIRv4RXPCGNGFPH0rIa-39" value="&lt;font color=&quot;#ff0000&quot;&gt;id UUID&lt;/font&gt;" style="swimlane;startSize=20;html=1;strokeWidth=5;strokeColor=#FF00FF;" parent="CSIRv4RXPCGNGFPH0rIa-38" vertex="1">
          <mxGeometry y="20" width="70" height="220" as="geometry" />
        </mxCell>
        <mxCell id="iS5wdr6oOOaTFg59CG-a-7" value="1JKJN&amp;nbsp; &amp;nbsp; &amp;nbsp; &amp;nbsp; &amp;nbsp;2024-01-25&amp;nbsp; &amp;nbsp; &amp;nbsp; &amp;nbsp; &amp;nbsp; WITHDRAWAL&lt;span style=&quot;white-space: pre;&quot;&gt;&#x9;&lt;/span&gt;&lt;span style=&quot;white-space: pre;&quot;&gt;&#x9;&lt;/span&gt;&lt;span style=&quot;white-space: pre;&quot;&gt;&#x9;&lt;/span&gt;&lt;span style=&quot;white-space: pre;&quot;&gt;&#x9;&lt;/span&gt;6666,66&lt;span style=&quot;white-space: pre;&quot;&gt;&#x9;&lt;/span&gt;&lt;span style=&quot;white-space: pre;&quot;&gt;&#x9;&lt;/span&gt;&lt;span style=&quot;white-space: pre;&quot;&gt;&#x9;&lt;/span&gt;&lt;span style=&quot;white-space: pre;&quot;&gt;&#x9;&lt;/span&gt;Crucifix&lt;span style=&quot;white-space: pre;&quot;&gt;&#x9;&lt;span style=&quot;white-space: pre;&quot;&gt;&#x9;&lt;/span&gt;  &lt;/span&gt;&lt;span style=&quot;white-space: pre;&quot;&gt;   2024-12-21_04:59:08&lt;/span&gt;" style="text;html=1;align=left;verticalAlign=middle;whiteSpace=wrap;rounded=0;" parent="CSIRv4RXPCGNGFPH0rIa-39" vertex="1">
          <mxGeometry x="10" y="30" width="720" height="30" as="geometry" />
        </mxCell>
        <mxCell id="CSIRv4RXPCGNGFPH0rIa-40" value="date DATE" style="swimlane;startSize=20;html=1;" parent="CSIRv4RXPCGNGFPH0rIa-38" vertex="1">
          <mxGeometry x="70" y="20" width="80" height="220" as="geometry" />
        </mxCell>
        <mxCell id="CSIRv4RXPCGNGFPH0rIa-41" value="type TEXT" style="swimlane;startSize=20;html=1;" parent="CSIRv4RXPCGNGFPH0rIa-38" vertex="1">
          <mxGeometry x="150" y="20" width="140" height="220" as="geometry" />
        </mxCell>
        <mxCell id="CSIRv4RXPCGNGFPH0rIa-42" value="amount DECIMAL (20, 2)" style="swimlane;startSize=20;html=1;" parent="CSIRv4RXPCGNGFPH0rIa-38" vertex="1">
          <mxGeometry x="290" y="20" width="150" height="220" as="geometry" />
        </mxCell>
        <mxCell id="CSIRv4RXPCGNGFPH0rIa-43" value="comment TEXT" style="swimlane;startSize=20;html=1;" parent="CSIRv4RXPCGNGFPH0rIa-38" vertex="1">
          <mxGeometry x="440" y="20" width="140" height="220" as="geometry" />
        </mxCell>
        <mxCell id="iS5wdr6oOOaTFg59CG-a-3" value="accountid UUID" style="swimlane;startSize=20;html=1;strokeColor=#009900;strokeWidth=5;" parent="CSIRv4RXPCGNGFPH0rIa-38" vertex="1">
          <mxGeometry x="580" y="20" width="130" height="220" as="geometry" />
        </mxCell>
        <mxCell id="CSIRv4RXPCGNGFPH0rIa-44" value="created TIMESTAMP" style="swimlane;startSize=20;html=1;" parent="CSIRv4RXPCGNGFPH0rIa-38" vertex="1">
          <mxGeometry x="710" y="20" width="120" height="220" as="geometry" />
        </mxCell>
        <mxCell id="ifU1T9FJ0lVMCZAQscqx-1" value="accounts" style="swimlane;childLayout=stackLayout;resizeParent=1;resizeParentMax=0;startSize=20;html=1;" parent="1" vertex="1">
          <mxGeometry x="150" y="480" width="570" height="230" as="geometry" />
        </mxCell>
        <mxCell id="ifU1T9FJ0lVMCZAQscqx-2" value="accountid UUID" style="swimlane;startSize=20;html=1;strokeColor=#009900;strokeWidth=5;" parent="ifU1T9FJ0lVMCZAQscqx-1" vertex="1">
          <mxGeometry y="20" width="120" height="210" as="geometry" />
        </mxCell>
        <mxCell id="iS5wdr6oOOaTFg59CG-a-8" value="2ca21-fva1231&amp;nbsp;&lt;span style=&quot;white-space: pre;&quot;&gt;&#x9;&lt;/span&gt;&lt;span style=&quot;white-space: pre;&quot;&gt;&#x9;&lt;/span&gt;checking&lt;span style=&quot;white-space: pre;&quot;&gt;&#x9;&lt;/span&gt;&lt;span style=&quot;white-space: pre;&quot;&gt;&#x9;&lt;/span&gt;&lt;span style=&quot;white-space: pre;&quot;&gt;&#x9;&lt;/span&gt;&lt;span style=&quot;white-space: pre;&quot;&gt;&#x9;&lt;/span&gt;26022313&lt;span style=&quot;white-space: pre;&quot;&gt;&#x9;&lt;/span&gt;&lt;span style=&quot;white-space: pre;&quot;&gt;&#x9;&lt;/span&gt;&lt;span style=&quot;white-space: pre;&quot;&gt;&#x9;&lt;/span&gt;&lt;span style=&quot;white-space: pre;&quot;&gt;&#x9;&lt;/span&gt;123XC" style="text;html=1;align=left;verticalAlign=middle;whiteSpace=wrap;rounded=0;" parent="ifU1T9FJ0lVMCZAQscqx-2" vertex="1">
          <mxGeometry x="10" y="30" width="520" height="30" as="geometry" />
        </mxCell>
        <mxCell id="ifU1T9FJ0lVMCZAQscqx-6" value="name TEXT" style="swimlane;startSize=20;html=1;" parent="ifU1T9FJ0lVMCZAQscqx-1" vertex="1">
          <mxGeometry x="120" y="20" width="120" height="210" as="geometry" />
        </mxCell>
        <mxCell id="ifU1T9FJ0lVMCZAQscqx-7" value="amount DECIMAL (20, 2)" style="swimlane;startSize=20;html=1;" parent="ifU1T9FJ0lVMCZAQscqx-1" vertex="1">
          <mxGeometry x="240" y="20" width="180" height="210" as="geometry" />
        </mxCell>
        <mxCell id="CSIRv4RXPCGNGFPH0rIa-47" value="&lt;font color=&quot;#009900&quot;&gt;userid UUID&lt;/font&gt;" style="swimlane;startSize=20;html=1;strokeColor=#0000FF;strokeWidth=5;" parent="ifU1T9FJ0lVMCZAQscqx-1" vertex="1">
          <mxGeometry x="420" y="20" width="150" height="210" as="geometry" />
        </mxCell>
        <mxCell id="iS5wdr6oOOaTFg59CG-a-1" style="edgeStyle=orthogonalEdgeStyle;rounded=0;orthogonalLoop=1;jettySize=auto;html=1;exitX=0.5;exitY=1;exitDx=0;exitDy=0;strokeColor=#0000FF;strokeWidth=5;" parent="1" source="CSIRv4RXPCGNGFPH0rIa-29" target="CSIRv4RXPCGNGFPH0rIa-47" edge="1">
          <mxGeometry relative="1" as="geometry" />
        </mxCell>
        <mxCell id="5pWKrHa-abM7D_eLQmsP-1" style="edgeStyle=orthogonalEdgeStyle;rounded=0;orthogonalLoop=1;jettySize=auto;html=1;exitX=0.75;exitY=1;exitDx=0;exitDy=0;entryX=0.5;entryY=0;entryDx=0;entryDy=0;strokeColor=#009900;strokeWidth=5;" parent="1" source="ifU1T9FJ0lVMCZAQscqx-2" target="iS5wdr6oOOaTFg59CG-a-3" edge="1">
          <mxGeometry relative="1" as="geometry" />
        </mxCell>
        <mxCell id="YTgPXhFkHsq-FvVo_ohy-1" value="&lt;h1 style=&quot;box-sizing: border-box; font-size: 30.1px; margin: 0px; font-family: &amp;quot;Titillium Web&amp;quot;, sans-serif; font-weight: 500; line-height: 1.1; color: rgb(192, 186, 178); cursor: text; padding: 0px; counter-reset: list-1 0 list-2 0 list-3 0 list-4 0 list-5 0 list-6 0 list-7 0 list-8 0 list-9 0; background-color: rgb(29, 29, 29);&quot;&gt;BedÃ¶mning&lt;/h1&gt;&lt;h1 style=&quot;margin-top: 0px;&quot;&gt;&lt;p style=&quot;box-sizing: border-box; margin: 0px; cursor: text; padding: 0px; counter-reset: list-1 0 list-2 0 list-3 0 list-4 0 list-5 0 list-6 0 list-7 0 list-8 0 list-9 0; color: rgb(192, 186, 178); font-family: &amp;quot;Titillium Web&amp;quot;, sans-serif; font-size: 14px; font-weight: 400; background-color: rgb(29, 29, 29);&quot;&gt;&lt;br style=&quot;box-sizing: border-box;&quot;&gt;&lt;/p&gt;&lt;p style=&quot;box-sizing: border-box; margin: 0px; cursor: text; padding: 0px; counter-reset: list-1 0 list-2 0 list-3 0 list-4 0 list-5 0 list-6 0 list-7 0 list-8 0 list-9 0; color: rgb(192, 186, 178); font-family: &amp;quot;Titillium Web&amp;quot;, sans-serif; font-size: 14px; font-weight: 400; background-color: rgb(29, 29, 29);&quot;&gt;IG, G &amp;amp; VG&lt;/p&gt;&lt;p style=&quot;box-sizing: border-box; margin: 0px; cursor: text; padding: 0px; counter-reset: list-1 0 list-2 0 list-3 0 list-4 0 list-5 0 list-6 0 list-7 0 list-8 0 list-9 0; color: rgb(192, 186, 178); font-family: &amp;quot;Titillium Web&amp;quot;, sans-serif; font-size: 14px; font-weight: 400; background-color: rgb(29, 29, 29);&quot;&gt;&lt;br style=&quot;box-sizing: border-box;&quot;&gt;&lt;/p&gt;&lt;p style=&quot;box-sizing: border-box; margin: 0px; cursor: text; padding: 0px; counter-reset: list-1 0 list-2 0 list-3 0 list-4 0 list-5 0 list-6 0 list-7 0 list-8 0 list-9 0; color: rgb(192, 186, 178); font-family: &amp;quot;Titillium Web&amp;quot;, sans-serif; font-size: 14px; font-weight: 400; background-color: rgb(29, 29, 29);&quot;&gt;Krav fÃ¶r G:&lt;/p&gt;&lt;p style=&quot;box-sizing: border-box; margin: 0px; cursor: text; padding: 0px; counter-reset: list-1 0 list-2 0 list-3 0 list-4 0 list-5 0 list-6 0 list-7 0 list-8 0 list-9 0; font-family: &amp;quot;Titillium Web&amp;quot;, sans-serif; font-size: 14px; font-weight: 400; background-color: rgb(29, 29, 29);&quot;&gt;&lt;font color=&quot;#009900&quot;&gt;- FÃ¶lj instruktionerna i beskrivningen&lt;/font&gt;&lt;/p&gt;&lt;p style=&quot;box-sizing: border-box; margin: 0px; cursor: text; padding: 0px; counter-reset: list-1 0 list-2 0 list-3 0 list-4 0 list-5 0 list-6 0 list-7 0 list-8 0 list-9 0; font-family: &amp;quot;Titillium Web&amp;quot;, sans-serif; font-size: 14px; font-weight: 400; background-color: rgb(29, 29, 29);&quot;&gt;&lt;font color=&quot;#009900&quot;&gt;- AnvÃ¤nd Git fÃ¶r versionshantering&lt;/font&gt;&lt;/p&gt;&lt;p style=&quot;box-sizing: border-box; margin: 0px; cursor: text; padding: 0px; counter-reset: list-1 0 list-2 0 list-3 0 list-4 0 list-5 0 list-6 0 list-7 0 list-8 0 list-9 0; font-family: &amp;quot;Titillium Web&amp;quot;, sans-serif; font-size: 14px; font-weight: 400; background-color: rgb(29, 29, 29);&quot;&gt;&lt;font color=&quot;#009900&quot;&gt;- AnvÃ¤nd PostgreSQL som databas&lt;/font&gt;&lt;/p&gt;&lt;p style=&quot;box-sizing: border-box; margin: 0px; cursor: text; padding: 0px; counter-reset: list-1 0 list-2 0 list-3 0 list-4 0 list-5 0 list-6 0 list-7 0 list-8 0 list-9 0; font-family: &amp;quot;Titillium Web&amp;quot;, sans-serif; font-size: 14px; font-weight: 400; background-color: rgb(29, 29, 29);&quot;&gt;&lt;font color=&quot;#009900&quot;&gt;- Alla queries (skapa tabeller, selects, inserts m.m) mÃ¥ste skrivas med kod. LÃ¤raren mÃ¥ste kunna testa projektet utan att behÃ¶va gÃ¶ra nÃ¥got utÃ¶ver att skapa sjÃ¤lva databasen med CREATE DATABASE&lt;/font&gt;&lt;/p&gt;&lt;p style=&quot;box-sizing: border-box; margin: 0px; cursor: text; padding: 0px; counter-reset: list-1 0 list-2 0 list-3 0 list-4 0 list-5 0 list-6 0 list-7 0 list-8 0 list-9 0; color: rgb(192, 186, 178); font-family: &amp;quot;Titillium Web&amp;quot;, sans-serif; font-size: 14px; font-weight: 400; background-color: rgb(29, 29, 29);&quot;&gt;&lt;br style=&quot;box-sizing: border-box;&quot;&gt;&lt;/p&gt;&lt;p style=&quot;box-sizing: border-box; margin: 0px; cursor: text; padding: 0px; counter-reset: list-1 0 list-2 0 list-3 0 list-4 0 list-5 0 list-6 0 list-7 0 list-8 0 list-9 0; color: rgb(192, 186, 178); font-family: &amp;quot;Titillium Web&amp;quot;, sans-serif; font-size: 14px; font-weight: 400; background-color: rgb(29, 29, 29);&quot;&gt;Krav fÃ¶r VG:&lt;/p&gt;&lt;p style=&quot;box-sizing: border-box; margin: 0px; cursor: text; padding: 0px; counter-reset: list-1 0 list-2 0 list-3 0 list-4 0 list-5 0 list-6 0 list-7 0 list-8 0 list-9 0; font-family: &amp;quot;Titillium Web&amp;quot;, sans-serif; font-size: 14px; font-weight: 400; background-color: rgb(29, 29, 29);&quot;&gt;&lt;span style=&quot;color: rgb(192, 186, 178);&quot;&gt;- &lt;/span&gt;&lt;font color=&quot;#009900&quot;&gt;UppnÃ¥ alla krav fÃ¶r G&lt;/font&gt;&lt;/p&gt;&lt;p style=&quot;box-sizing: border-box; margin: 0px; cursor: text; padding: 0px; counter-reset: list-1 0 list-2 0 list-3 0 list-4 0 list-5 0 list-6 0 list-7 0 list-8 0 list-9 0; font-family: &amp;quot;Titillium Web&amp;quot;, sans-serif; font-size: 14px; font-weight: 400; background-color: rgb(29, 29, 29);&quot;&gt;&lt;span style=&quot;color: rgb(192, 186, 178);&quot;&gt;- &lt;/span&gt;&lt;font color=&quot;#009900&quot;&gt;Bygg ett kontosystem (mer information i beskrivning) och spara kontoinformation pÃ¥ ett sÃ¤kert sÃ¤tt (hashing av lÃ¶senord)&lt;/font&gt;&lt;/p&gt;&lt;p style=&quot;box-sizing: border-box; margin: 0px; cursor: text; padding: 0px; counter-reset: list-1 0 list-2 0 list-3 0 list-4 0 list-5 0 list-6 0 list-7 0 list-8 0 list-9 0; font-family: &amp;quot;Titillium Web&amp;quot;, sans-serif; font-size: 14px; font-weight: 400; background-color: rgb(29, 29, 29);&quot;&gt;&lt;span style=&quot;color: rgb(192, 186, 178);&quot;&gt;- &lt;/span&gt;&lt;font color=&quot;#009900&quot;&gt;AnvÃ¤nd minst en SQL JOIN dÃ¤r det gÃ¥r, eller hitta pÃ¥ ett sÃ¤tt att anvÃ¤nda det&lt;/font&gt;&lt;/p&gt;&lt;p style=&quot;box-sizing: border-box; margin: 0px; cursor: text; padding: 0px; counter-reset: list-1 0 list-2 0 list-3 0 list-4 0 list-5 0 list-6 0 list-7 0 list-8 0 list-9 0; font-family: &amp;quot;Titillium Web&amp;quot;, sans-serif; font-size: 14px; font-weight: 400; background-color: rgb(29, 29, 29);&quot;&gt;&lt;span style=&quot;color: rgb(192, 186, 178);&quot;&gt;- &lt;/span&gt;&lt;font color=&quot;#009900&quot;&gt;AnvÃ¤nd alla normalformer (1NF, 2NF, 3NF)&lt;/font&gt;&lt;/p&gt;&lt;p style=&quot;box-sizing: border-box; margin: 0px; cursor: text; padding: 0px; counter-reset: list-1 0 list-2 0 list-3 0 list-4 0 list-5 0 list-6 0 list-7 0 list-8 0 list-9 0; font-family: &amp;quot;Titillium Web&amp;quot;, sans-serif; font-size: 14px; font-weight: 400; background-color: rgb(29, 29, 29);&quot;&gt;&lt;span style=&quot;color: rgb(192, 186, 178);&quot;&gt;- &lt;/span&gt;&lt;font color=&quot;#009900&quot;&gt;Felhantera alla databasoperationer (try/catch, resource releasing/closing)&lt;/font&gt;&lt;/p&gt;&lt;p style=&quot;box-sizing: border-box; margin: 0px; cursor: text; padding: 0px; counter-reset: list-1 0 list-2 0 list-3 0 list-4 0 list-5 0 list-6 0 list-7 0 list-8 0 list-9 0; color: rgb(192, 186, 178); font-family: &amp;quot;Titillium Web&amp;quot;, sans-serif; font-size: 14px; font-weight: 400; background-color: rgb(29, 29, 29);&quot;&gt;&lt;br style=&quot;box-sizing: border-box;&quot;&gt;&lt;/p&gt;&lt;/h1&gt;&lt;h1 style=&quot;box-sizing: border-box; font-size: 30.1px; margin: 0px; font-family: &amp;quot;Titillium Web&amp;quot;, sans-serif; font-weight: 500; line-height: 1.1; color: rgb(192, 186, 178); cursor: text; padding: 0px; counter-reset: list-1 0 list-2 0 list-3 0 list-4 0 list-5 0 list-6 0 list-7 0 list-8 0 list-9 0; background-color: rgb(29, 29, 29);&quot;&gt;Beskrivning&lt;/h1&gt;&lt;h1 style=&quot;margin-top: 0px;&quot;&gt;&lt;p style=&quot;box-sizing: border-box; margin: 0px; cursor: text; padding: 0px; counter-reset: list-1 0 list-2 0 list-3 0 list-4 0 list-5 0 list-6 0 list-7 0 list-8 0 list-9 0; color: rgb(192, 186, 178); font-family: &amp;quot;Titillium Web&amp;quot;, sans-serif; font-size: 14px; font-weight: 400; background-color: rgb(29, 29, 29);&quot;&gt;&lt;br style=&quot;box-sizing: border-box;&quot;&gt;&lt;/p&gt;&lt;p style=&quot;box-sizing: border-box; margin: 0px; cursor: text; padding: 0px; counter-reset: list-1 0 list-2 0 list-3 0 list-4 0 list-5 0 list-6 0 list-7 0 list-8 0 list-9 0; color: rgb(192, 186, 178); font-family: &amp;quot;Titillium Web&amp;quot;, sans-serif; font-size: 14px; font-weight: 400; background-color: rgb(29, 29, 29);&quot;&gt;FortsÃ¤tt pÃ¥ Personal Finance projektet frÃ¥n tidigare kurser. Det Ã¤r okej att skriva om projektet frÃ¥n scratch om det kÃ¤nns enklare med kommande beskrivning.&lt;/p&gt;&lt;p style=&quot;box-sizing: border-box; margin: 0px; cursor: text; padding: 0px; counter-reset: list-1 0 list-2 0 list-3 0 list-4 0 list-5 0 list-6 0 list-7 0 list-8 0 list-9 0; color: rgb(192, 186, 178); font-family: &amp;quot;Titillium Web&amp;quot;, sans-serif; font-size: 14px; font-weight: 400; background-color: rgb(29, 29, 29);&quot;&gt;&lt;br style=&quot;box-sizing: border-box;&quot;&gt;&lt;/p&gt;&lt;p style=&quot;box-sizing: border-box; margin: 0px; cursor: text; padding: 0px; counter-reset: list-1 0 list-2 0 list-3 0 list-4 0 list-5 0 list-6 0 list-7 0 list-8 0 list-9 0; font-family: &amp;quot;Titillium Web&amp;quot;, sans-serif; font-size: 14px; font-weight: 400; background-color: rgb(29, 29, 29);&quot;&gt;&lt;font color=&quot;#009900&quot;&gt;Applikationen skall koppla pÃ¥ och anvÃ¤nda en databas fÃ¶r att spara och hantera information&lt;/font&gt;&lt;span style=&quot;color: rgb(192, 186, 178);&quot;&gt;. &lt;/span&gt;&lt;font color=&quot;#009900&quot;&gt;Alla transaktioner skall sparas och hÃ¤mtas och raderas och uppdateras till och frÃ¥n databas.&lt;/font&gt;&lt;/p&gt;&lt;p style=&quot;box-sizing: border-box; margin: 0px; cursor: text; padding: 0px; counter-reset: list-1 0 list-2 0 list-3 0 list-4 0 list-5 0 list-6 0 list-7 0 list-8 0 list-9 0; color: rgb(192, 186, 178); font-family: &amp;quot;Titillium Web&amp;quot;, sans-serif; font-size: 14px; font-weight: 400; background-color: rgb(29, 29, 29);&quot;&gt;&lt;br style=&quot;box-sizing: border-box;&quot;&gt;&lt;/p&gt;&lt;p style=&quot;box-sizing: border-box; margin: 0px; cursor: text; padding: 0px; counter-reset: list-1 0 list-2 0 list-3 0 list-4 0 list-5 0 list-6 0 list-7 0 list-8 0 list-9 0; font-family: &amp;quot;Titillium Web&amp;quot;, sans-serif; font-size: 14px; font-weight: 400; background-color: rgb(29, 29, 29);&quot;&gt;&lt;span style=&quot;color: rgb(192, 186, 178);&quot;&gt;FÃ¶r VG skall det Ã¤ven finnas ett k&lt;/span&gt;&lt;font color=&quot;#009900&quot;&gt;ontosystem, med vilket man kan logga in pÃ¥ olika anvÃ¤ndare, byta mellan dem och lÃ¤gga till transaktioner&lt;/font&gt;&lt;font color=&quot;#c0bab2&quot;&gt;. All funktionalitet som fanns i uppgiften frÃ¥n fÃ¶rra kursen skall finnas nu, men kan skall kunna gÃ¶ra &lt;/font&gt;&lt;font color=&quot;#009900&quot;&gt;det per-anvÃ¤ndare. En anvÃ¤ndare kan inte se transaktioner fÃ¶r en annan anvÃ¤ndare.&lt;/font&gt;&lt;/p&gt;&lt;p style=&quot;box-sizing: border-box; margin: 0px; cursor: text; padding: 0px; counter-reset: list-1 0 list-2 0 list-3 0 list-4 0 list-5 0 list-6 0 list-7 0 list-8 0 list-9 0; color: rgb(192, 186, 178); font-family: &amp;quot;Titillium Web&amp;quot;, sans-serif; font-size: 14px; font-weight: 400; background-color: rgb(29, 29, 29);&quot;&gt;&lt;br style=&quot;box-sizing: border-box;&quot;&gt;&lt;/p&gt;&lt;p style=&quot;box-sizing: border-box; margin: 0px; cursor: text; padding: 0px; counter-reset: list-1 0 list-2 0 list-3 0 list-4 0 list-5 0 list-6 0 list-7 0 list-8 0 list-9 0; color: rgb(192, 186, 178); font-family: &amp;quot;Titillium Web&amp;quot;, sans-serif; font-size: 14px; font-weight: 400; background-color: rgb(29, 29, 29);&quot;&gt;FÃ¶rtydligande krav fÃ¶r kontosystem (endast fÃ¶r VG), fÃ¶ljande mÃ¶jligheter skall finnas:&lt;/p&gt;&lt;p style=&quot;box-sizing: border-box; margin: 0px; cursor: text; padding: 0px; counter-reset: list-1 0 list-2 0 list-3 0 list-4 0 list-5 0 list-6 0 list-7 0 list-8 0 list-9 0; font-family: &amp;quot;Titillium Web&amp;quot;, sans-serif; font-size: 14px; font-weight: 400; background-color: rgb(29, 29, 29);&quot;&gt;&lt;span style=&quot;color: rgb(192, 186, 178);&quot;&gt;- &lt;/span&gt;&lt;font color=&quot;#009900&quot;&gt;Registrera anvÃ¤ndare genom namn och lÃ¶senord&lt;/font&gt;&lt;/p&gt;&lt;p style=&quot;box-sizing: border-box; margin: 0px; cursor: text; padding: 0px; counter-reset: list-1 0 list-2 0 list-3 0 list-4 0 list-5 0 list-6 0 list-7 0 list-8 0 list-9 0; font-family: &amp;quot;Titillium Web&amp;quot;, sans-serif; font-size: 14px; font-weight: 400; background-color: rgb(29, 29, 29);&quot;&gt;&lt;font color=&quot;#009900&quot;&gt;- Logga in genom namn och lÃ¶senord&lt;/font&gt;&lt;/p&gt;&lt;p style=&quot;box-sizing: border-box; margin: 0px; cursor: text; padding: 0px; counter-reset: list-1 0 list-2 0 list-3 0 list-4 0 list-5 0 list-6 0 list-7 0 list-8 0 list-9 0; font-family: &amp;quot;Titillium Web&amp;quot;, sans-serif; font-size: 14px; font-weight: 400; background-color: rgb(29, 29, 29);&quot;&gt;&lt;font color=&quot;#009900&quot;&gt;- Logga ut (och kunna byta anvÃ¤ndare genom att logga in igen)&lt;/font&gt;&lt;/p&gt;&lt;p style=&quot;box-sizing: border-box; margin: 0px; cursor: text; padding: 0px; counter-reset: list-1 0 list-2 0 list-3 0 list-4 0 list-5 0 list-6 0 list-7 0 list-8 0 list-9 0; font-family: &amp;quot;Titillium Web&amp;quot;, sans-serif; font-size: 14px; font-weight: 400; background-color: rgb(29, 29, 29);&quot;&gt;&lt;span style=&quot;color: rgb(192, 186, 178);&quot;&gt;-&lt;/span&gt;&lt;font color=&quot;#009900&quot;&gt; All funktionalitet frÃ¥n tidigare uppgift, kopplat per-anvÃ¤ndare&lt;/font&gt;&lt;/p&gt;&lt;p style=&quot;box-sizing: border-box; margin: 0px; cursor: text; padding: 0px; counter-reset: list-1 0 list-2 0 list-3 0 list-4 0 list-5 0 list-6 0 list-7 0 list-8 0 list-9 0; color: rgb(192, 186, 178); font-family: &amp;quot;Titillium Web&amp;quot;, sans-serif; font-size: 14px; font-weight: 400; background-color: rgb(29, 29, 29);&quot;&gt;&lt;br style=&quot;box-sizing: border-box;&quot;&gt;&lt;/p&gt;&lt;p style=&quot;box-sizing: border-box; margin: 0px; cursor: text; padding: 0px; counter-reset: list-1 0 list-2 0 list-3 0 list-4 0 list-5 0 list-6 0 list-7 0 list-8 0 list-9 0; font-family: &amp;quot;Titillium Web&amp;quot;, sans-serif; font-size: 14px; font-weight: 400; background-color: rgb(29, 29, 29);&quot;&gt;&lt;font color=&quot;#009900&quot;&gt;AnvÃ¤nd GUI&lt;/font&gt;&lt;span style=&quot;color: rgb(192, 186, 178);&quot;&gt; eller terminal-app valfritt.&lt;/span&gt;&lt;/p&gt;&lt;/h1&gt;" style="text;html=1;whiteSpace=wrap;overflow=hidden;rounded=0;" parent="1" vertex="1">
          <mxGeometry x="880" y="20" width="820" height="680" as="geometry" />
        </mxCell>
        <mxCell id="6vpG5e99lfsMtiDZl84I-1" value="&lt;h1 style=&quot;margin-top: 0px;&quot;&gt;EF Home Financial Terminal (OOP krav)&lt;/h1&gt;&lt;p style=&quot;box-sizing: border-box; margin: 0px; cursor: text; padding: 0px; counter-reset: list-1 0 list-2 0 list-3 0 list-4 0 list-5 0 list-6 0 list-7 0 list-8 0 list-9 0; font-family: &amp;quot;Titillium Web&amp;quot;, sans-serif; font-size: 14px;&quot;&gt;&lt;span style=&quot;color: rgb(192, 186, 178);&quot;&gt;FortsÃ¤tt bygga pÃ¥ personal-finance applikationen frÃ¥n &quot;Programmering i Java&quot; kursen. Bygg om kommando systemet fÃ¶r att anvÃ¤nda OOP med &lt;/span&gt;&lt;font color=&quot;#009900&quot;&gt;abstraction, encapsulation, inheritance och polymorphism&lt;/font&gt;&lt;font color=&quot;#c0bab2&quot;&gt;. &lt;strike&gt;Om du tidigare gick fÃ¶r VG i &quot;Programmering i Java&quot; kursen, och anvÃ¤nde ett GUI, sÃ¥ mÃ¥ste du gÃ¶ra om applikationen fÃ¶r att fungera i terminalen istÃ¤llet&lt;/strike&gt;.&lt;/font&gt;&lt;/p&gt;&lt;p style=&quot;box-sizing: border-box; margin: 0px; cursor: text; padding: 0px; counter-reset: list-1 0 list-2 0 list-3 0 list-4 0 list-5 0 list-6 0 list-7 0 list-8 0 list-9 0; color: rgb(192, 186, 178); font-family: &amp;quot;Titillium Web&amp;quot;, sans-serif; font-size: 14px;&quot;&gt;&lt;br style=&quot;box-sizing: border-box;&quot;&gt;&lt;/p&gt;&lt;p style=&quot;box-sizing: border-box; margin: 0px; cursor: text; padding: 0px; counter-reset: list-1 0 list-2 0 list-3 0 list-4 0 list-5 0 list-6 0 list-7 0 list-8 0 list-9 0; font-family: &amp;quot;Titillium Web&amp;quot;, sans-serif; font-size: 14px;&quot;&gt;&lt;span style=&quot;color: rgb(192, 186, 178);&quot;&gt;GÃ¶r Ã¤ven sÃ¥ &lt;/span&gt;&lt;font color=&quot;#009900&quot;&gt;att all information sparas&lt;/font&gt;&lt;font color=&quot;#c0bab2&quot;&gt; &lt;strike&gt;till och frÃ¥n fil&lt;/strike&gt; &lt;/font&gt;&lt;font color=&quot;#009900&quot;&gt;pÃ¥ ett OOP sÃ¤t&lt;/font&gt;&lt;font color=&quot;#c0bab2&quot;&gt;t. &lt;/font&gt;&lt;font color=&quot;#009900&quot;&gt;Om du redan har implementerat filsparning sÃ¥ mÃ¥ste du fortfarande redesigna systemet pÃ¥ ett OOP sÃ¤tt. Som en bÃ¶rjan, och som ett tips, sÃ¥ kan du skapa ett interface fÃ¶r det&lt;/font&gt;&lt;font color=&quot;#c0bab2&quot;&gt;:&lt;/font&gt;&lt;/p&gt;&lt;p style=&quot;box-sizing: border-box; margin: 0px; cursor: text; padding: 0px; counter-reset: list-1 0 list-2 0 list-3 0 list-4 0 list-5 0 list-6 0 list-7 0 list-8 0 list-9 0; color: rgb(192, 186, 178); font-family: &amp;quot;Titillium Web&amp;quot;, sans-serif; font-size: 14px;&quot;&gt;&lt;br style=&quot;box-sizing: border-box;&quot;&gt;&lt;/p&gt;&lt;p style=&quot;box-sizing: border-box; margin: 0px; cursor: text; padding: 0px; counter-reset: list-1 0 list-2 0 list-3 0 list-4 0 list-5 0 list-6 0 list-7 0 list-8 0 list-9 0; color: rgb(192, 186, 178); font-family: &amp;quot;Titillium Web&amp;quot;, sans-serif; font-size: 14px;&quot;&gt;```&lt;/p&gt;&lt;p style=&quot;box-sizing: border-box; margin: 0px; cursor: text; padding: 0px; counter-reset: list-1 0 list-2 0 list-3 0 list-4 0 list-5 0 list-6 0 list-7 0 list-8 0 list-9 0; color: rgb(192, 186, 178); font-family: &amp;quot;Titillium Web&amp;quot;, sans-serif; font-size: 14px;&quot;&gt;public interface TransactionSaver {&lt;/p&gt;&lt;p style=&quot;box-sizing: border-box; margin: 0px; cursor: text; padding: 0px; counter-reset: list-1 0 list-2 0 list-3 0 list-4 0 list-5 0 list-6 0 list-7 0 list-8 0 list-9 0; color: rgb(192, 186, 178); font-family: &amp;quot;Titillium Web&amp;quot;, sans-serif; font-size: 14px;&quot;&gt;&amp;nbsp;&amp;nbsp;&amp;nbsp;void saveTransaction(Transaction transaction);&lt;/p&gt;&lt;p style=&quot;box-sizing: border-box; margin: 0px; cursor: text; padding: 0px; counter-reset: list-1 0 list-2 0 list-3 0 list-4 0 list-5 0 list-6 0 list-7 0 list-8 0 list-9 0; color: rgb(192, 186, 178); font-family: &amp;quot;Titillium Web&amp;quot;, sans-serif; font-size: 14px;&quot;&gt;&amp;nbsp;&amp;nbsp;&amp;nbsp;void deleteTransaction(int id);&lt;/p&gt;&lt;p style=&quot;box-sizing: border-box; margin: 0px; cursor: text; padding: 0px; counter-reset: list-1 0 list-2 0 list-3 0 list-4 0 list-5 0 list-6 0 list-7 0 list-8 0 list-9 0; color: rgb(192, 186, 178); font-family: &amp;quot;Titillium Web&amp;quot;, sans-serif; font-size: 14px;&quot;&gt;&amp;nbsp;&amp;nbsp;&amp;nbsp;// Och sÃ¥ vidare...&lt;/p&gt;&lt;p style=&quot;box-sizing: border-box; margin: 0px; cursor: text; padding: 0px; counter-reset: list-1 0 list-2 0 list-3 0 list-4 0 list-5 0 list-6 0 list-7 0 list-8 0 list-9 0; color: rgb(192, 186, 178); font-family: &amp;quot;Titillium Web&amp;quot;, sans-serif; font-size: 14px;&quot;&gt;}&lt;/p&gt;&lt;p style=&quot;box-sizing: border-box; margin: 0px; cursor: text; padding: 0px; counter-reset: list-1 0 list-2 0 list-3 0 list-4 0 list-5 0 list-6 0 list-7 0 list-8 0 list-9 0; color: rgb(192, 186, 178); font-family: &amp;quot;Titillium Web&amp;quot;, sans-serif; font-size: 14px;&quot;&gt;```&lt;/p&gt;&lt;p style=&quot;box-sizing: border-box; margin: 0px; cursor: text; padding: 0px; counter-reset: list-1 0 list-2 0 list-3 0 list-4 0 list-5 0 list-6 0 list-7 0 list-8 0 list-9 0; color: rgb(192, 186, 178); font-family: &amp;quot;Titillium Web&amp;quot;, sans-serif; font-size: 14px;&quot;&gt;&lt;br style=&quot;box-sizing: border-box;&quot;&gt;&lt;/p&gt;&lt;p style=&quot;box-sizing: border-box; margin: 0px; cursor: text; padding: 0px; counter-reset: list-1 0 list-2 0 list-3 0 list-4 0 list-5 0 list-6 0 list-7 0 list-8 0 list-9 0; color: rgb(192, 186, 178); font-family: &amp;quot;Titillium Web&amp;quot;, sans-serif; font-size: 14px;&quot;&gt;I en kommande kurs sÃ¥ kommer samma uppgift att anvÃ¤ndas fÃ¶r att spara all data till en databas sÃ¥ du bÃ¶r nu i fÃ¶rvÃ¤g fÃ¶rbereda koden pÃ¥ att det skall implementeras. Detta Ã¤r inte ett krav men det kommer att fÃ¶renkla koden betydligt mycket senare.&lt;/p&gt;" style="text;html=1;whiteSpace=wrap;overflow=hidden;rounded=0;" parent="1" vertex="1">
          <mxGeometry x="880" y="710" width="820" height="350" as="geometry" />
        </mxCell>
        <mxCell id="_gRTD7SprF5dVUeLx0Hp-1" value="&lt;b style=&quot;&quot;&gt;&lt;u style=&quot;&quot;&gt;&lt;font style=&quot;font-size: 24px;&quot;&gt;&lt;span style=&quot;background-color: initial;&quot;&gt;VG krav (original):&lt;/span&gt;&lt;br style=&quot;&quot;&gt;&lt;/font&gt;&lt;/u&gt;&lt;/b&gt;&lt;ul style=&quot;font-size: 14px;&quot;&gt;&lt;li style=&quot;&quot;&gt;&lt;font color=&quot;#009900&quot; style=&quot;font-size: 14px;&quot;&gt;LÃ¤gga in transaktioner manuellt&lt;/font&gt;&lt;/li&gt;&lt;li style=&quot;&quot;&gt;&lt;font color=&quot;#009900&quot; style=&quot;font-size: 14px;&quot;&gt;Radera transaktioner manuellt&lt;/font&gt;&lt;/li&gt;&lt;li style=&quot;&quot;&gt;&lt;font color=&quot;#009900&quot; style=&quot;font-size: 14px;&quot;&gt;Se nuvarande kontobalans&lt;/font&gt;&lt;/li&gt;&lt;li style=&quot;&quot;&gt;&lt;font color=&quot;#009900&quot; style=&quot;font-size: 14px;&quot;&gt;se pengarna spenderade:&lt;/font&gt;&lt;/li&gt;&lt;ul style=&quot;&quot;&gt;&lt;li style=&quot;&quot;&gt;&lt;font color=&quot;#009900&quot; style=&quot;font-size: 14px;&quot;&gt;Ã¥rs-&lt;/font&gt;&lt;/li&gt;&lt;li style=&quot;&quot;&gt;&lt;font color=&quot;#009900&quot; style=&quot;font-size: 14px;&quot;&gt;mÃ¥nads-&lt;/font&gt;&lt;/li&gt;&lt;li style=&quot;&quot;&gt;&lt;font color=&quot;#009900&quot; style=&quot;font-size: 14px;&quot;&gt;vecko-&lt;/font&gt;&lt;/li&gt;&lt;li style=&quot;&quot;&gt;&lt;font color=&quot;#009900&quot; style=&quot;font-size: 14px;&quot;&gt;dagvis&lt;/font&gt;&lt;/li&gt;&lt;/ul&gt;&lt;/ul&gt;&lt;div style=&quot;font-size: 14px;&quot;&gt;&lt;ul style=&quot;&quot;&gt;&lt;li style=&quot;&quot;&gt;&lt;font color=&quot;#009900&quot; style=&quot;font-size: 14px;&quot;&gt;se inkomst:&lt;/font&gt;&lt;/li&gt;&lt;ul style=&quot;&quot;&gt;&lt;li style=&quot;&quot;&gt;&lt;font color=&quot;#009900&quot; style=&quot;font-size: 14px;&quot;&gt;Ã¥rs-&lt;/font&gt;&lt;/li&gt;&lt;li style=&quot;&quot;&gt;&lt;font color=&quot;#009900&quot; style=&quot;font-size: 14px;&quot;&gt;mÃ¥nads-&lt;/font&gt;&lt;/li&gt;&lt;li style=&quot;&quot;&gt;&lt;font color=&quot;#009900&quot; style=&quot;font-size: 14px;&quot;&gt;vecko-&lt;/font&gt;&lt;/li&gt;&lt;li style=&quot;&quot;&gt;&lt;font color=&quot;#009900&quot; style=&quot;font-size: 14px;&quot;&gt;dagvis&lt;/font&gt;&lt;/li&gt;&lt;/ul&gt;&lt;li style=&quot;&quot;&gt;&lt;font style=&quot;font-size: 14px;&quot;&gt;&lt;strike&gt;Spara och ladda all data till / frÃ¥n&amp;nbsp; en fil&lt;/strike&gt;&lt;/font&gt;&lt;/li&gt;&lt;li style=&quot;&quot;&gt;&lt;font color=&quot;#009900&quot; style=&quot;font-size: 14px;&quot;&gt;Byggd med UI&lt;/font&gt;&lt;/li&gt;&lt;li style=&quot;&quot;&gt;&lt;font style=&quot;font-size: 14px;&quot;&gt;&lt;strike&gt;Skriva fem unit tester&amp;nbsp;&lt;/strike&gt;&lt;/font&gt;&lt;/li&gt;&lt;/ul&gt;&lt;/div&gt;" style="rounded=0;whiteSpace=wrap;html=1;align=left;fontSize=24;" vertex="1" parent="1">
          <mxGeometry x="880" y="1070" width="800" height="340" as="geometry" />
        </mxCell>
      </root>
    </mxGraphModel>
  </diagram>
</mxfile>
